<?xml version="1.0" encoding="UTF-8" standalone="no"?>
<!-- Created with Inkscape (http://www.inkscape.org/) -->

<svg
   width="210mm"
   height="297mm"
   viewBox="0 0 210 297"
   version="1.1"
   id="svg3414"
   inkscape:version="1.2.2 (732a01da63, 2022-12-09)"
   sodipodi:docname="sprechblase.svg"
   xmlns:inkscape="http://www.inkscape.org/namespaces/inkscape"
   xmlns:sodipodi="http://sodipodi.sourceforge.net/DTD/sodipodi-0.dtd"
   xmlns="http://www.w3.org/2000/svg"
   xmlns:svg="http://www.w3.org/2000/svg">
  <sodipodi:namedview
     id="namedview3416"
     pagecolor="#ffffff"
     bordercolor="#000000"
     borderopacity="0.25"
     inkscape:showpageshadow="2"
     inkscape:pageopacity="0.0"
     inkscape:pagecheckerboard="0"
     inkscape:deskcolor="#d1d1d1"
     inkscape:document-units="mm"
     showgrid="false"
     inkscape:zoom="0.78127806"
     inkscape:cx="270.71028"
     inkscape:cy="561.89982"
     inkscape:window-width="1920"
     inkscape:window-height="1009"
     inkscape:window-x="1912"
     inkscape:window-y="-8"
     inkscape:window-maximized="1"
     inkscape:current-layer="layer1" />
  <defs
     id="defs3411" />
  <g
     inkscape:label="Ebene 1"
     inkscape:groupmode="layer"
     id="layer1">
    <path
       id="path6064"
       d="m 122.33877,147.18095 c -0.0161,1.50255 1.23405,2.73599 2.59256,2.96646 1.45099,0.29743 3.12841,-0.42896 3.72458,-1.90327 0.45135,-1.08558 0.12313,-2.41775 -0.72553,-3.18178 -1.35322,-1.29793 -3.69885,-1.20134 -4.90768,0.26449 -0.42505,0.49985 -0.68251,1.15605 -0.68393,1.82925"
       style="fill:#cccccc;stroke:#cccccc;stroke-width:0.766825;stroke-linecap:round;stroke-linejoin:round"
       inkscape:connector-curvature="0" />
    <path
       id="path6053"
       style="fill:#ffffff;stroke:#000000;stroke-width:0.766825;stroke-linecap:round;stroke-linejoin:round"
       inkscape:connector-curvature="0"
       d="m 120.96049,147.26597 c -0.0161,1.50256 1.23405,2.73599 2.59256,2.96647 1.45099,0.29742 3.12841,-0.42897 3.72458,-1.90326 0.45135,-1.08557 0.12313,-2.41776 -0.72553,-3.18179 -1.35322,-1.29793 -3.69885,-1.20135 -4.90768,0.26448 -0.42505,0.49985 -0.68251,1.15605 -0.68393,1.82925" />
    <path
       id="path6066"
       d="m 125.80007,155.54227 c -0.0192,1.09415 0.89465,2.07004 1.96517,2.21554 1.07352,0.18432 2.25558,-0.43305 2.6166,-1.48023 0.3529,-0.92667 -0.0385,-2.04167 -0.87031,-2.57055 -0.91405,-0.62941 -2.25776,-0.52524 -3.04107,0.26955 -0.41661,0.40141 -0.67277,0.96628 -0.67035,1.54727"
       style="fill:#cccccc;stroke:#cccccc;stroke-width:0.766825;stroke-linecap:round;stroke-linejoin:round"
       inkscape:connector-curvature="0" />
    <path
       id="path6055"
       style="fill:#ffffff;stroke:#000000;stroke-width:0.766825;stroke-linecap:round;stroke-linejoin:round"
       inkscape:connector-curvature="0"
       d="m 124.51995,156.03696 c -0.0192,1.09415 0.89465,2.07004 1.96518,2.21555 1.07351,0.18432 2.25557,-0.43307 2.6166,-1.48024 0.35289,-0.92667 -0.0385,-2.04168 -0.87031,-2.57056 -0.91406,-0.6294 -2.25776,-0.52522 -3.04107,0.26957 -0.41662,0.40139 -0.67278,0.96627 -0.67036,1.54726" />
    <path
       id="path6062"
       d="m 114.5298,114.55482 c 3.0918,0 5.83669,1.36775 7.58237,3.48418 1.15119,-1.10147 2.68331,-1.77247 4.36016,-1.77247 2.66468,0 4.94487,1.689 5.94059,4.10979 3.91541,0.23562 7.0176,3.26752 7.0176,6.97696 0,2.73422 -1.68131,5.09669 -4.13434,6.24731 0.0256,0.24638 0.0434,0.49407 0.0434,0.74724 0,3.95758 -3.20951,7.16827 -7.16521,7.16827 -1.2967,0 -2.51181,-0.35295 -3.56098,-0.95577 -1.59369,2.22372 -4.29537,3.68402 -7.35653,3.68402 -3.83681,0 -7.10233,-2.30274 -8.33768,-5.5173 -0.81104,0.26127 -1.67521,0.39967 -2.57086,0.39967 -4.70945,0 -8.529006,-3.90046 -8.529006,-8.70615 v -0.0695 c 0.03504,-4.35978 3.208626,-7.94698 7.321646,-8.54089 0.81881,-4.13088 4.71213,-7.25493 9.38861,-7.25493 z"
       style="fill:#cccccc;stroke:#cccccc;stroke-width:0.766825;stroke-linecap:round;stroke-linejoin:round"
       inkscape:connector-curvature="0" />
    <path
       id="path6057"
       style="fill:#ffffff;stroke:#000000;stroke-width:0.766825;stroke-linecap:round;stroke-linejoin:round"
       inkscape:connector-curvature="0"
       d="m 114.3381,112.63776 c 3.0918,0 5.83668,1.36775 7.58236,3.48418 1.1512,-1.10147 2.68331,-1.77248 4.36016,-1.77248 2.66468,0 4.94487,1.68901 5.94059,4.1098 3.91541,0.23561 7.0176,3.26752 7.0176,6.97695 0,2.73423 -1.6813,5.0967 -4.13434,6.24732 0.0256,0.24638 0.0434,0.49407 0.0434,0.74724 0,3.95758 -3.2095,7.16827 -7.1652,7.16827 -1.2967,0 -2.51181,-0.35296 -3.56098,-0.95577 -1.5937,2.22372 -4.29537,3.68402 -7.35654,3.68402 -3.8368,0 -7.10233,-2.30274 -8.33768,-5.5173 -0.81103,0.26126 -1.67521,0.39966 -2.57086,0.39966 -4.70945,0 -8.529002,-3.90045 -8.529002,-8.70614 v -0.0695 c 0.03504,-4.35978 3.208622,-7.94698 7.321642,-8.54089 0.81881,-4.13088 4.71214,-7.25493 9.38862,-7.25493 z" />
    <g
       id="layer1-7"
       transform="matrix(0.00111102,0,0,0.00111102,109.12358,116.56244)"
       style="fill:#000000;fill-opacity:1;stroke:none">
      <path
         d="m 3545,8914 c -273,-27 -425,-51 -599,-95 -241,-61 -448,-135 -664,-239 C 1313,8113 612,7216 401,6172 c -52,-255 -65,-399 -66,-692 0,-269 7,-366 46,-595 233,-1386 1323,-2509 2704,-2784 272,-55 383,-65 695,-65 304,0 418,10 669,59 69,14 131,25 138,25 6,0 89,-137 183,-305 95,-168 178,-305 184,-305 6,0 135,48 285,106 150,58 274,104 276,102 1,-2 44,-120 95,-263 51,-143 99,-267 106,-276 8,-8 77,-44 153,-78 l 140,-63 254,36 253,36 225,-10 c 123,-5 332,-10 465,-10 250,0 454,-9 454,-19 0,-3 -50,-26 -110,-50 -153,-61 -154,-65 -56,-121 l 60,-34 -47,-15 c -97,-33 -86,-46 68,-81 55,-12 103,-24 107,-27 4,-2 -35,-90 -88,-195 -52,-105 -93,-197 -90,-205 9,-22 33,-4 214,155 85,74 157,130 162,126 4,-5 12,-58 18,-118 11,-111 20,-137 40,-114 5,7 43,92 82,188 39,96 73,176 75,178 1,2 62,-27 135,-63 124,-62 160,-72 160,-44 0,6 -34,68 -76,136 -41,69 -73,131 -71,137 3,6 50,29 106,50 56,21 106,45 112,52 16,20 -13,28 -163,49 -69,10 -132,21 -139,25 -9,6 -5,37 16,130 18,85 24,125 16,133 -7,7 -43,-11 -116,-57 -91,-57 -109,-65 -118,-52 -99,126 -203,246 -214,246 -23,0 -24,-22 -10,-141 8,-63 13,-116 11,-118 -2,-2 -48,5 -101,17 -54,12 -190,33 -303,48 -274,35 -415,29 -676,-26 -100,-22 -242,-46 -318,-54 l -136,-15 -106,39 c -114,43 -97,30 -335,250 l -59,55 -22,116 c -12,64 -19,123 -16,130 3,8 121,88 262,178 190,122 256,169 253,181 -2,9 -79,134 -171,279 -92,144 -166,266 -164,271 2,4 39,37 83,72 399,322 709,706 934,1157 186,372 288,720 343,1171 20,161 17,602 -6,775 -38,305 -112,596 -213,850 -472,1185 -1534,2005 -2798,2161 -122,15 -559,27 -650,18 z"
         id="path2"
         inkscape:connector-curvature="0"
         style="fill:#000000;fill-opacity:1;stroke:none" />
    </g>
    <path
       inkscape:connector-curvature="0"
       d="m 126.65959,132.65218 c 0,0.12403 0,0.24805 0,0.37208 -0.004,0.0181 -0.007,0.0362 -0.01,0.0545 -0.0267,0.20177 -0.0369,0.40736 -0.0827,0.60471 -0.29157,1.25823 -1.02735,2.1664 -2.18553,2.73191 -0.35506,0.17337 -0.73164,0.28243 -1.12462,0.33107 -0.10603,0.0131 -0.21246,0.024 -0.31869,0.0359 -0.11572,0 -0.2315,0 -0.34728,0 -0.0243,-0.004 -0.0485,-0.007 -0.0729,-0.0109 -0.18712,-0.0266 -0.37736,-0.0397 -0.56084,-0.082 -0.83083,-0.19164 -1.51193,-0.62493 -2.03849,-1.29611 -0.37644,-0.47981 -0.61771,-1.02113 -0.7149,-1.62431 -0.0212,-0.13168 -0.0326,-0.26496 -0.0484,-0.39749 0,-0.10751 0,-0.21499 0,-0.32248 0.004,-0.0139 0.008,-0.0276 0.01,-0.0417 0.0184,-0.14704 0.0259,-0.29626 0.0559,-0.44088 0.16374,-0.79106 0.5607,-1.44112 1.19746,-1.94036 0.53237,-0.41739 1.13866,-0.64681 1.81363,-0.68764 0.30208,-0.0183 0.60158,0.0132 0.8947,0.0903 0.78574,0.20668 1.39139,0.65959 1.80698,1.35543 0.37424,0.62656 0.49769,1.30506 0.34413,2.02161 -0.14048,0.6555 -0.48901,1.18466 -1.03484,1.5745 -0.56325,0.40229 -1.19222,0.56483 -1.87831,0.44681 -0.61227,-0.10532 -1.10687,-0.41588 -1.47055,-0.92129 -0.32398,-0.45021 -0.47156,-0.95507 -0.40874,-1.50924 0.0604,-0.53274 0.29495,-0.98045 0.71653,-1.31659 0.48318,-0.38524 1.02843,-0.52569 1.63536,-0.36712 0.65123,0.17016 1.14549,0.7534 1.18911,1.41765 0.0299,0.45484 -0.12263,0.84652 -0.47973,1.13956 -0.31621,0.25946 -0.67829,0.35893 -1.08102,0.24473 -0.48867,-0.13856 -0.77506,-0.62575 -0.69327,-1.05302 0.0564,-0.29433 0.2929,-0.57428 0.69329,-0.56094 0.21416,0.007 0.44164,0.13164 0.48978,0.3895 0.0329,0.17621 -0.019,0.382 -0.21029,0.47969 -0.0109,0.005 -0.0206,0.0123 -0.0307,0.0185 0.053,0.008 0.10374,0.0104 0.15038,-0.002 0.23894,-0.0643 0.40597,-0.28233 0.40653,-0.53661 5.9e-4,-0.27282 -0.11886,-0.49289 -0.33303,-0.65289 -0.31588,-0.23604 -0.66104,-0.24547 -1.01018,-0.0826 -0.55425,0.25854 -0.81958,0.87648 -0.6445,1.48111 0.24332,0.84034 1.13163,1.30174 1.98495,1.0327 0.95603,-0.30144 1.50621,-1.27608 1.24985,-2.28162 -0.28161,-1.10446 -1.33476,-1.79691 -2.47642,-1.62596 -0.487,0.0729 -0.92088,0.27485 -1.2811,0.60972 -0.75631,0.70309 -1.00606,1.57184 -0.75389,2.56474 0.36661,1.4436 1.78979,2.34299 3.25818,2.082 0.82423,-0.14651 1.49471,-0.55677 1.9957,-1.22443 0.57592,-0.76755 0.75727,-1.63344 0.56727,-2.57172 -0.17213,-0.84993 -0.61436,-1.53797 -1.29207,-2.07537 -0.28977,-0.22978 -0.61339,-0.39985 -0.95971,-0.52867 -0.14265,-0.0531 -0.22143,-0.16396 -0.23863,-0.31208 -0.0161,-0.13901 0.0356,-0.2577 0.14903,-0.34022 0.0499,-0.0363 0.11341,-0.0539 0.17069,-0.08 0.0372,0 0.0744,0 0.11159,0 0.0329,0.011 0.0662,0.021 0.0985,0.0333 1.09864,0.41536 1.89346,1.16068 2.39841,2.21712 0.18651,0.39025 0.30522,0.80199 0.3567,1.23221 0.0129,0.10824 0.0242,0.21669 0.0362,0.32504 z"
       id="path4488"
       style="fill:#000000;fill-opacity:1;stroke:none;stroke-width:0.0124028" />
    <path
       style="fill:#000000;fill-opacity:1;stroke:none;stroke-width:0.0299624"
       d="m 124.23091,117.34789 c -0.67894,-0.006 -1.35819,-0.0138 -2.03774,-0.0153 -0.32959,0.54561 -0.64749,1.09842 -0.97259,1.64703 0.0109,0.0108 0.0321,0.033 0.0429,0.0437 0.13901,3e-4 0.27655,-0.0237 0.41527,-0.0291 -0.51415,0.77783 -1.02412,1.55805 -1.53827,2.33618 -0.0315,0.0506 -0.0863,0.10247 -0.051,0.16659 0.21752,0.0336 0.43385,0.0743 0.65019,0.11326 -0.57919,1.10172 -1.16375,2.20074 -1.73963,3.30396 0.0122,0.0126 0.0372,0.038 0.0494,0.0509 1.08374,-1.05168 2.16658,-2.10397 3.25033,-3.15535 0.0329,-0.0315 0.0836,-0.0749 0.0339,-0.11715 -0.22921,-0.0578 -0.45603,-0.12375 -0.68644,-0.17708 0.32898,-0.36944 0.68014,-0.7191 1.01692,-1.08165 0.35087,-0.36823 0.70023,-0.73797 1.0511,-1.10621 -0.004,-0.0156 -0.0109,-0.047 -0.015,-0.0629 -0.23851,-0.0449 -0.47761,-0.0881 -0.71641,-0.13303 0.42367,-0.57468 0.84524,-1.15086 1.27131,-1.72344 -0.006,-0.015 -0.018,-0.0452 -0.0243,-0.0605"
       id="path7016"
       inkscape:connector-curvature="0" />
    <path
       style="fill:#000000;fill-opacity:1;stroke:none;stroke-width:0.0364233"
       d="m 113.35627,129.33466 c 0.90875,-1.00746 1.81315,-2.01893 2.72117,-3.02749 -0.0787,1.21908 -0.16426,2.43744 -0.24477,3.65579 0.57185,-0.12529 1.14333,-0.25314 1.71517,-0.3788 -0.2189,0.28775 -0.44181,0.57257 -0.66034,0.86105 0.66836,0.32343 1.33708,0.64541 2.00472,0.97031 -0.71389,0.0674 -1.42852,0.12602 -2.14277,0.19013 0.18029,0.18138 0.3624,0.36132 0.54198,0.54307 -0.27318,0.023 -0.54635,0.0441 -0.81989,0.0641 0.44801,0.79657 0.9073,1.58695 1.34947,2.38681 -0.89928,-0.63668 -1.79165,-1.28319 -2.68766,-1.92387 -0.0845,-0.0557 -0.15881,-0.13331 -0.25933,-0.15772 -0.10458,0.2597 -0.21417,0.51758 -0.32272,0.77582 -0.11256,-0.29175 -0.21197,-0.58824 -0.31978,-0.88181 -0.33401,0.43562 -0.66473,0.87306 -0.9991,1.30796 -0.0232,-0.40831 -0.0383,-0.81734 -0.0641,-1.22564 -0.61628,0.6822 -1.23511,1.36186 -1.85576,2.04042 0.14751,-0.79038 0.29868,-1.58003 0.44692,-2.37005 -0.8432,0.0423 -1.68603,0.0907 -2.52959,0.12784 0.52776,-0.31251 1.06137,-0.61482 1.58768,-0.93024 -0.55217,-0.4491 -1.11091,-0.89019 -1.65907,-1.34402 0.72665,0.0841 1.45292,0.16937 2.1792,0.25606 -0.14497,-0.92224 -0.29284,-1.84374 -0.43817,-2.76525 0.48115,0.48006 0.95974,0.96266 1.44235,1.44163 0.0616,-0.31324 0.12712,-0.62575 0.18503,-0.93972 0.2892,0.43271 0.55072,0.88399 0.82936,1.32362"
       id="path7020"
       inkscape:connector-curvature="0" />
    <g
       id="g7012"
       transform="matrix(8.7412211e-4,0,0,8.7412211e-4,115.7495,129.39044)"
       style="fill:#000000;fill-opacity:1;stroke:none">
      <path
         inkscape:connector-curvature="0"
         id="path6338"
         d="m 16920.973,-1999.5332 a 750.075,750.075 0 0 0 -719.461,523.5312 c -154.484,464.7034 -416.651,897.92062 -606.596,1593.95317 -326.448,898.61593 -635.317,1893.62483 -830.061,3000.65623 -92.86,482.1055 -172.495,969.994 -242.681,1458.541 a 750.075,750.075 0 1 0 1484.756,213.3047 c 67.748,-471.5778 144.05,-938.1856 231.935,-1393.8691 l 1.197,-6.2012 1.09,-6.2207 c 176.322,-1004.9495 460.585,-1923.1912 774.014,-2782.87499 l 11.49,-31.51758 8.631,-32.41797 c 133.856,-502.752391 373.671,-890.52826 589.633,-1540.16206 a 750.075,750.075 0 0 0 -703.947,-996.7227 z"
         style="color:#000000;font-style:normal;font-variant:normal;font-weight:normal;font-stretch:normal;font-size:medium;line-height:normal;font-family:sans-serif;font-variant-ligatures:normal;font-variant-position:normal;font-variant-caps:normal;font-variant-numeric:normal;font-variant-alternates:normal;font-feature-settings:normal;text-indent:0;text-align:start;text-decoration:none;text-decoration-line:none;text-decoration-style:solid;text-decoration-color:#000000;letter-spacing:normal;word-spacing:normal;text-transform:none;writing-mode:lr-tb;direction:ltr;text-orientation:mixed;dominant-baseline:auto;baseline-shift:baseline;text-anchor:start;white-space:normal;shape-padding:0;clip-rule:nonzero;display:inline;overflow:visible;visibility:visible;opacity:1;isolation:auto;mix-blend-mode:normal;color-interpolation:sRGB;color-interpolation-filters:linearRGB;solid-color:#000000;solid-opacity:1;vector-effect:none;fill:#000000;fill-opacity:1;fill-rule:evenodd;stroke:none;stroke-width:1500;stroke-linecap:round;stroke-linejoin:miter;stroke-miterlimit:4;stroke-dasharray:none;stroke-dashoffset:0;stroke-opacity:1;color-rendering:auto;image-rendering:auto;shape-rendering:auto;text-rendering:auto;enable-background:accumulate" />
      <path
         inkscape:connector-curvature="0"
         id="path6354"
         d="m 14937.338,6064.0938 a 750.075,750.075 0 0 0 -775.588,722.9472 c -5.074,101.969 -14.581,197.718 -29.133,285.6016 -36.061,110.9656 -81.733,290.0479 -37.129,530.8125 a 750.075,750.075 0 0 0 1489.069,-142.002 l 3.382,-9.9453 9.788,-50.9687 c 35.836,-186.6129 53.622,-367.1663 62.169,-538.9551 a 750.075,750.075 0 0 0 -722.558,-797.4902 z m 633.053,1266.1191 c 1.733,9.3558 3.181,18.3114 4.414,26.9355 a 750.075,750.075 0 0 0 -4.414,-26.9355 z m 5.127,157.8125 c -4.298,22.0341 -9.16,26.9229 -4.293,12.6172 z"
         style="color:#000000;font-style:normal;font-variant:normal;font-weight:normal;font-stretch:normal;font-size:medium;line-height:normal;font-family:sans-serif;font-variant-ligatures:normal;font-variant-position:normal;font-variant-caps:normal;font-variant-numeric:normal;font-variant-alternates:normal;font-feature-settings:normal;text-indent:0;text-align:start;text-decoration:none;text-decoration-line:none;text-decoration-style:solid;text-decoration-color:#000000;letter-spacing:normal;word-spacing:normal;text-transform:none;writing-mode:lr-tb;direction:ltr;text-orientation:mixed;dominant-baseline:auto;baseline-shift:baseline;text-anchor:start;white-space:normal;shape-padding:0;clip-rule:nonzero;display:inline;overflow:visible;visibility:visible;opacity:1;isolation:auto;mix-blend-mode:normal;color-interpolation:sRGB;color-interpolation-filters:linearRGB;solid-color:#000000;solid-opacity:1;vector-effect:none;fill:#000000;fill-opacity:1;fill-rule:evenodd;stroke:none;stroke-width:1500;stroke-linecap:round;stroke-linejoin:miter;stroke-miterlimit:4;stroke-dasharray:none;stroke-dashoffset:0;stroke-opacity:1;color-rendering:auto;image-rendering:auto;shape-rendering:auto;text-rendering:auto;enable-background:accumulate" />
    </g>
    <g
       transform="matrix(0.00427163,0,0,0.00427163,124.51906,114.66005)"
       id="g6983"
       style="fill:#000000;fill-opacity:1;stroke:none">
      <path
         inkscape:connector-curvature="0"
         id="path6939"
         d="m 120.63435,1683.5077 c -7.4516,2e-4 -14.209,1.2663 -19.558,4.3856 -24.688,14.397 -26.324,52.872 -26.786,81.447 -0.47469,29.366 24.806,84.546 24.806,84.546 0,0 -61.909,46.893 -71.634,81.812 -8.0113,28.767 -7.1803,68.989 15.681,88.199 20.663,17.363 80.968,0.2308 80.968,0.2308 l 109.01,-55.083 c 0,0 217.78,71.995 387.49,151.73 -169.69,103.5 -334.65,212.96 -334.65,212.96 0,0 -116.91,12.569 -167.9,39.045 -36.574,18.987 -84.646,41.859 -92.188,82.371 -4.7815,25.683 14.121,55.078 35.738,69.748 27.11,18.398 97.843,9.3411 97.843,9.3411 0,0 38.815,71.454 73.614,86.129 19.911,8.3952 45.26,5.2159 64.688,-4.2449 25.189,-12.266 40.915,-39.053 56.042,-62.636 19.588,-30.536 15.102,-70.866 43.463,-99.783 97.316,-99.227 250.87,-192.9 356.03,-260.86 105.12,67.895 257.81005,161.21 354.73005,260.03 28.361,28.918 23.878,69.243 43.466,99.78 15.127,23.582 30.854,50.372 56.043,62.639 19.427,9.4605 44.777,12.637 64.688,4.2413 34.8,-14.674 73.614,-86.125 73.614,-86.125 0,0 70.733,9.0569 97.843,-9.341 21.616,-14.67 40.519,-44.069 35.738,-69.751 -7.5423,-40.512 -55.614,-63.38 -92.188,-82.367 -50.999,-26.476 -167.9,-39.045 -167.9,-39.045 0,0 -163.96,-108.8 -333.10005,-212.02 169.48005,-79.445 385.94005,-151 385.94005,-151 l 109.01,55.083 c 0,0 60.305,17.136 80.968,-0.2273 22.862,-19.21 23.689,-59.432 15.678,-88.199 -9.7244,-34.918 -71.63,-81.815 -71.63,-81.815 0,0 25.281,-55.176 24.806,-84.542 -0.4618,-28.576 -2.1016,-67.05 -26.79,-81.447 -28.527,-16.636 -97.151,19.407 -97.151,19.407 l -161.06,157.12 c 0,0 -192.34005,70.959 -283.54005,117.25 -32.524,16.507 -69.687,36.927 -109.07,59.498 -39.918,-22.899 -77.6,-43.623 -110.52,-60.331 -91.201,-46.287 -283.54,-117.25 -283.54,-117.25 l -161.06,-157.12 c 0,0 -45.305,-23.797 -77.596,-23.796 z"
         style="fill:#000000;fill-opacity:1;stroke:none" />
      <path
         d="m 804.87836,1449.3234 c 46.26946,-8.6423 46.26946,25.9354 53.97916,69.1558 0,25.9354 7.70895,34.5777 7.70895,60.5132 0,17.2847 0,51.8626 -15.41865,60.5133 -15.41784,8.6508 -30.84365,0 -46.26946,0 -15.42574,0 -38.55328,0 -46.26304,-8.6507 -15.42575,-8.6423 -15.42575,-34.5779 -15.42575,-51.8626 0,-51.8625 15.42575,-103.7336 61.68879,-129.669 z M 588.97618,1181.3515 c 84.8164,-8.6424 138.79555,60.5134 131.08579,155.5961 -15.42575,95.0911 -92.53244,181.5316 -177.35524,164.2467 -53.97194,-8.6423 -77.10669,-69.1556 -84.81639,-121.0182 -7.70889,-95.0911 53.97199,-164.2467 131.08584,-198.8246 z m 370.12276,-17.2847 c 69.39776,8.6423 161.93016,60.505 161.93016,146.9536 0,69.1557 -7.7097,172.8809 -92.5324,172.8809 -23.1356,0 -46.26306,-25.9271 -69.39776,-34.5779 -30.8444,-25.9271 -69.39778,-60.5049 -84.82359,-103.7251 -30.84364,-77.8064 15.42581,-164.2468 84.82359,-181.5315 z m -640.00334,86.4404 c 15.41865,34.5778 23.12754,77.798 23.12754,112.3758 -7.70889,43.2202 -46.26224,95.0912 -53.972,121.0183 -15.42575,43.2286 7.70976,146.9537 46.26311,172.8892 61.68804,34.5777 123.37609,-25.9355 177.34808,8.6424 61.68804,34.5777 23.1347,129.6689 100.24139,86.4487 0,0 26.68028,-26.6133 38.56132,-17.2931 15.41783,34.5778 28.91876,63.0231 39.81429,61.2745 10.89547,-1.7485 19.20219,-33.6992 38.47851,-29.3739 15.42575,0 29.65748,49.2355 45.07613,49.2355 23.13469,8.6423 36.18031,-41.9234 51.60612,-41.9234 15.41783,-8.6423 26.69465,37.9328 42.11324,29.282 15.42581,0 21.94783,-25.2747 37.36651,-33.9169 15.4186,-8.6423 35.5984,18.64 51.0162,1.3471 15.4258,-8.6426 10.6718,-53.2096 26.0976,-79.1452 15.4258,-25.9353 69.39776,-86.4404 92.52526,-103.7334 69.405,-43.2202 161.9302,17.293 192.7739,-60.5049 46.2702,-103.7336 -23.1276,-112.3842 -53.9712,-190.1823 -15.4258,-43.2202 -7.7168,-155.5961 0,-198.8162 h 15.4178 c 23.1355,95.0911 -30.8436,146.9536 30.8445,181.5314 23.1347,-69.1556 0,-77.7979 7.7089,-138.3113 l 7.7169,-86.4403 c 0,-43.2202 -38.5606,-207.46706 -69.4049,-242.04492 -7.709,-17.28469 -30.8365,-25.92703 -46.2623,-34.57776 -15.4186,-25.92712 -30.8445,-43.22021 -53.9792,-60.50498 -23.1354,-17.28467 -77.1066,-25.93541 -100.2422,-43.22019 -92.52446,-34.58116 -200.48274,-51.87014 -300.72488,-43.22609 l -69.39699,17.28897 c -61.68886,8.64404 -138.79555,25.93712 -192.77464,69.15731 -69.39699,43.2202 -146.50369,138.30294 -161.9295,224.75173 l -23.12755,172.88083 c -7.71692,51.8709 -38.56132,164.2467 7.70889,198.8246 53.97917,43.2202 53.97917,-77.798 53.97917,-103.7335 z"
         id="path10"
         inkscape:connector-curvature="0"
         style="fill:#000000;fill-opacity:1;stroke:none;stroke-width:8.16403" />
    </g>
  </g>
</svg>
